<svg version="1.1" viewBox="0.0 0.0 1024.0 768.0" fill="none" stroke="none" stroke-linecap="square" stroke-miterlimit="10" xmlns:xlink="http://www.w3.org/1999/xlink" xmlns="http://www.w3.org/2000/svg"><clipPath id="p.0"><path d="m0 0l1024.0 0l0 768.0l-1024.0 0l0 -768.0z" clip-rule="nonzero"/></clipPath><g clip-path="url(#p.0)"><path fill="#000000" fill-opacity="0.0" d="m0 0l1024.0 0l0 768.0l-1024.0 0z" fill-rule="evenodd"/><path fill="#000000" fill-opacity="0.0" d="m176.50394 172.30183l660.85034 0l0 286.80316l-660.85034 0z" fill-rule="evenodd"/><path fill="#b7b7b7" d="m257.08206 195.31621l0 83.26564l-21.359375 0l1.578125 -55.656265l-5.890625 55.656265l-15.65625 0l-6.3125 -54.42189l1.578125 54.42189l-21.359375 0l0 -83.26564l29.890625 0q1.40625 8.578125 2.734375 18.390625l1.3125 20.59375l3.359375 -38.984375l30.125 0zm28.787933 43.046875l-21.90625 0l0 -5.984375q0 -7.953125 1.921875 -12.46875q1.921875 -4.515625 7.609375 -7.921875q5.703125 -3.40625 14.609375 -3.40625q10.640625 0 16.25 3.90625q5.609375 3.90625 6.71875 9.515625q1.125 5.609375 1.125 22.046875l0 34.531265l-22.609375 0l0.609375 -3.453125q0.34375 0.671875 -2.9375 2.65625q-3.265625 1.984375 -7.71875 1.984375q-5.734375 0 -10.65625 -3.3125q-4.921875 -3.3125 -4.921875 -14.09375l0 -5.390625q0 -7.9687653 2.640625 -11.000015q2.65625 -3.046875 12.21875 -6.75q9.296875 -3.640625 9.75 -4.53125q0.46875 -0.90625 0.46875 -4.640625q0 -4.78125 -0.46875 -5.734375q-0.46875 -0.953125 -1.265625 -0.953125q-0.9375 0 -1.1875 0.671875q-0.25 0.65625 -0.25 5.859375l0 8.46875zm3.171875 10.53125q-1.875 1.375 -2.53125 3.390625q-0.640625 2.015625 -0.640625 6.2187653q0 4.75 0.390625 5.625q0.390625 0.859375 1.34375 0.859375q0.90625 0 1.171875 -0.546875q0.265625 -0.5625 0.265625 -5.15625l0 -10.39064zm81.122375 -53.578125l0 55.125q0 9.218765 -0.640625 13.17189q-0.625 3.9375 -3.796875 8.140625q-3.15625 4.203125 -8.28125 6.359375q-5.109375 2.15625 -11.90625 2.15625q-7.5 0 -13.34375 -2.515625q-5.84375 -2.53125 -8.8125 -6.6875q-2.96875 -4.15625 -3.5 -8.625q-0.515625 -4.484375 -0.515625 -18.14064l0 -48.984375l23.984375 0l0 61.656265q0 4.9375 0.3125 5.765625q0.328125 0.8125 0.984375 0.8125q0.859375 0 1.1875 -0.953125q0.34375 -0.953125 0.34375 -6.6718903l0 -60.609375l23.984375 0zm53.78882 0l-7.578125 36.984375l11.375 46.281265l-22.5 0q-3.828125 -13.203125 -5.15625 -30.718765q0.78125 7.765625 -0.609375 16.32814l-2.1875 14.390625l-23.5 0l7.765625 -46.218765l-7.859375 -37.046875l23.4375 0q0.75 4.609375 2.375 12.296875q1.28125 5.90625 0.65625 6.03125l3.09375 -18.328125l20.6875 0z" fill-rule="nonzero"/><path fill="#b7b7b7" d="m238.19144 323.79123q-18.765625 28.140625 -45.453125 41.484375q-5.015625 1.0 -2.96875 -4.171875q28.9375 -17.421875 42.375 -47.140625l10.34375 3.28125q4.78125 4.0 1.703125 5.015625q16.71875 24.34375 46.90625 34.578125q-10.40625 2.765625 -13.265625 7.046875q-25.40625 -14.390625 -39.828125 -40.09375l0.1875 0zm-25.375 34.03125l0 -5.53125l34.171875 0l4.828125 -4.828125l6.6875 4.765625q4.59375 3.84375 -0.71875 5.59375l-44.96875 0zm-3.5625 6.734375l7.953125 4.765625l36.390625 0l3.21875 -4.125l7.578125 5.203125q6.28125 4.703125 -2.109375 5.828125l0 29.390625q-8.3125 7.65625 -8.3125 -0.28125l0 -3.171875l-36.421875 0l0 3.0625q-8.296875 7.671875 -8.296875 -0.296875l0 -40.375zm44.71875 32.078125l0 -21.78125l-36.421875 0l0 21.78125l36.421875 0zm56.640625 -74.015625l63.28125 0l2.828125 -3.78125l6.84375 4.890625q4.9375 4.125 -0.96875 5.328125l0 65.1875q0 5.46875 -3.265625 8.28125q-1.40625 1.40625 -5.328125 2.71875q-4.453125 1.484375 -4.453125 -3.875q0 -0.90625 -0.84375 -1.234375l-6.734375 -1.1875q-5.765625 -2.34375 0.140625 -4.6875l10.203125 0q1.984375 0 1.984375 -1.984375l0 -64.125l-63.34375 0l0 76.28125q-8.296875 7.671875 -8.296875 -0.28125l0 -86.296875l7.953125 4.765625zm41.515625 54.609375l0 -16.625l-20.984375 0l0 16.625l20.984375 0zm9.28125 -21.046875q4.9375 4.140625 -0.984375 5.328125l0 25.109375q-8.296875 7.671875 -8.296875 -0.28125l0 -3.578125l-20.984375 0l0 8.609375q-8.296875 7.671875 -8.296875 -0.28125l0 -39.140625l7.8125 3.125l21.0625 0l2.828125 -3.78125l6.859375 4.890625zm-45.296875 -17.734375l38.515625 0l6.4375 -6.4375l8.65625 6.375q4.59375 3.8125 -0.71875 5.59375l-52.890625 0l0 -5.53125zm84.109375 17.328125q25.953125 -14.9375 42.28125 -41.859375l10.421875 4.265625q4.171875 6.6875 -1.1875 5.609375q12.171875 15.703125 45.28125 27.765625q-8.484375 2.84375 -11.3125 7.5625q-27.84375 -14.34375 -39.578125 -34.125q-21.421875 27.046875 -44.265625 35.203125q-6.0625 0 -1.640625 -4.421875zm65.03125 36.6875q-2.546875 -2.546875 -8.828125 -7.25q-6.46875 -5.234375 2.171875 -3.96875q10.703125 4.109375 18.421875 10.609375q6.109375 5.234375 6.109375 11.109375q0 5.53125 -4.359375 5.53125q-2.984375 0 -5.015625 -4.5q-1.109375 -2.609375 -4.03125 -6.5l-51.90625 5.34375q-3.359375 10.671875 -6.96875 1.984375l-5.125 -9.71875l19.6875 -0.421875l6.8125 -19.4375l-31.8125 0l0 -5.53125l74.546875 0l5.65625 -5.640625l7.453125 5.59375q4.578125 3.796875 -0.734375 5.578125l-45.21875 0l-10.109375 18.875l33.25 -1.65625zm-45.84375 -41.359375l36.546875 0l4.828125 -4.828125l6.6875 4.765625q4.59375 3.84375 -0.71875 5.59375l-47.34375 0l0 -5.53125zm166.75003 44.34375l6.46875 -6.453125l8.359375 6.484375q3.203125 3.984375 -2.078125 5.5l-65.90625 0l0 -5.53125l28.09375 0l0 -40.390625l-22.15625 0l0 -5.53125l22.15625 0l0 -33.125l8.96875 1.484375q10.03125 1.8125 -0.671875 5.8125l0 25.828125l13.609375 0l5.65625 -5.640625l7.453125 5.59375q4.578125 3.796875 -0.734375 5.578125l-25.984375 0l0 40.390625l16.765625 0zm-45.75 -54.9375q-5.0 6.4375 -11.78125 14.71875l0 2.953125q16.234375 3.953125 16.234375 12.3125q0 4.359375 -3.5625 4.359375q-2.34375 0 -4.4375 -2.640625q-3.40625 -5.296875 -8.234375 -8.078125l0 41.890625q-8.296875 7.671875 -8.296875 -0.296875l0 -41.703125q-7.34375 7.34375 -15.4219055 12.015625q-4.953125 0 -2.390625 -3.828125q17.37503 -15.015625 28.46878 -33.375l-24.515656 0l0 -5.53125l13.8594055 0l0 -18.515625l8.734375 1.53125q7.4375 2.796875 -0.4375 5.453125l0 11.53125l3.703125 0l5.015625 -5.015625l7.484375 7.484375q5.0625 5.9375 -4.421875 4.734375z" fill-rule="nonzero"/></g></svg>